<?xml version="1.0" standalone="no"?>
<!DOCTYPE svg PUBLIC "-//W3C//DTD SVG 20010904//EN"
 "http://www.w3.org/TR/2001/REC-SVG-20010904/DTD/svg10.dtd">
<svg version="1.0" xmlns="http://www.w3.org/2000/svg"
 width="400.000000pt" height="400.000000pt" viewBox="0 0 400.000000 400.000000"
 preserveAspectRatio="xMidYMid meet">
<metadata>
Created by potrace 1.14, written by Peter Selinger 2001-2017
</metadata>
<g transform="translate(0.000000,400.000000) scale(0.100000,-0.100000)"
fill="#000000" stroke="none">
<path d="M2465 3775 c-57 -15 -102 -30 -112 -37 -7 -6 -29 -4 -55 3 -24 6 -50
13 -58 14 -8 2 -16 4 -17 5 -15 11 -132 -6 -150 -22 -7 -6 -13 -7 -13 -4 0 4
-6 2 -12 -4 -42 -35 -62 -50 -67 -51 -3 0 -49 -2 -101 -4 -89 -2 -93 -2 -62
11 17 8 32 17 32 22 0 4 18 16 41 26 22 11 42 23 44 26 5 8 -90 -7 -115 -17
-18 -7 -14 -6 -70 -22 -25 -7 -49 -14 -55 -15 -5 -1 -16 -5 -23 -10 -7 -4 -16
-5 -19 -2 -3 3 -15 0 -26 -6 -19 -10 -19 -12 -4 -23 9 -7 28 -10 42 -7 30 5
33 -12 5 -35 -30 -26 -25 -40 13 -38 44 4 166 15 200 19 15 2 27 -1 27 -6 0
-10 -22 -51 -32 -58 -21 -16 -67 -189 -73 -271 -2 -33 -7 -64 -10 -69 -3 -5
-1 -11 5 -15 6 -4 7 -12 3 -18 -4 -7 -8 -23 -9 -37 -1 -13 -6 -26 -12 -28 -7
-2 -8 -11 -3 -25 5 -12 6 -31 4 -42 -2 -11 -5 -29 -7 -40 -2 -11 -5 -21 -6
-22 -1 -2 -4 -7 -5 -13 -1 -5 -3 -11 -5 -12 -1 -2 -4 -16 -6 -31 -3 -19 -1
-26 6 -22 5 3 15 -6 21 -22 6 -15 19 -37 30 -49 11 -11 21 -29 24 -40 2 -10 8
-34 14 -51 7 -23 6 -35 -2 -40 -6 -3 -13 -1 -15 6 -5 15 -42 -15 -42 -35 0 -7
-8 -15 -17 -18 -40 -13 -89 -74 -108 -133 -17 -54 -24 -63 -74 -94 -30 -19
-69 -44 -87 -56 l-33 -22 -19 27 c-11 15 -31 50 -45 79 -23 44 -24 53 -12 63
8 7 13 16 10 20 -3 5 0 10 6 12 7 2 12 24 13 48 1 25 7 50 14 55 18 15 -7 65
-33 65 -16 0 -17 2 -5 9 8 6 18 7 24 4 5 -3 6 -1 2 5 -4 7 -2 12 5 12 7 0 9 3
6 6 -4 4 -13 1 -22 -6 -11 -9 -15 -9 -15 -1 0 13 13 19 49 24 13 2 26 11 28
20 2 10 5 25 6 34 2 9 10 19 18 21 11 3 11 1 -1 -7 -13 -10 -13 -11 0 -11 13
0 13 -1 0 -11 -13 -9 -13 -10 0 -6 8 2 16 9 16 15 1 7 2 19 3 28 1 9 6 12 14
8 10 -6 10 -4 0 7 -20 20 -15 31 7 19 18 -9 20 -7 21 17 1 15 1 36 0 46 -2 19
14 23 25 5 4 -7 3 -8 -4 -4 -7 4 -12 3 -12 -2 0 -6 6 -12 14 -15 8 -3 13 1 13
11 -2 30 14 82 24 82 6 0 7 -4 4 -10 -3 -5 -1 -10 4 -10 6 0 11 7 11 15 0 8
-6 15 -12 15 -10 0 -10 2 -1 8 7 4 14 24 15 44 2 20 7 34 11 31 5 -3 6 -11 3
-19 -3 -8 0 -14 7 -14 19 0 24 225 6 236 -9 5 -10 2 -5 -12 5 -14 4 -16 -4 -8
-10 10 -17 32 -19 60 -1 6 -13 10 -28 8 -16 -2 -20 -1 -11 2 28 9 -4 35 -46
37 -29 2 -33 5 -25 20 6 9 6 17 2 16 -29 -5 -51 4 -56 21 -3 11 -9 20 -14 19
-25 -4 -63 2 -63 12 0 5 6 7 13 3 9 -6 9 -4 -1 8 -15 19 -92 23 -92 5 0 -8 -3
-8 -8 -2 -4 6 -18 11 -32 13 l-25 2 28 -15 c33 -19 33 -20 2 -21 -14 -1 -22 2
-19 7 3 5 0 9 -5 9 -6 0 -11 -4 -11 -10 0 -5 -3 -9 -8 -9 -33 5 -50 -2 -45
-21 4 -16 0 -20 -20 -20 -21 0 -24 -4 -19 -22 5 -21 4 -22 -14 -8 -10 8 -16
11 -12 6 4 -5 0 -15 -8 -23 -8 -8 -11 -19 -8 -25 5 -7 0 -9 -12 -6 -19 5 -23
-3 -27 -59 0 -7 -6 -14 -14 -17 -15 -6 -13 15 2 26 6 4 2 8 -8 8 -10 0 -17 -6
-16 -12 5 -42 -2 -70 -16 -64 -16 6 -23 -14 -28 -77 -2 -36 -18 -52 -25 -25
-2 9 0 8 8 -2 8 -10 10 -11 8 -2 -8 31 -23 7 -25 -41 -1 -28 -8 -54 -15 -59
-11 -6 -11 -8 0 -8 8 0 12 -12 10 -34 -1 -19 -5 -33 -10 -30 -4 3 -4 12 -1 21
4 10 2 14 -4 10 -6 -4 -13 -1 -16 5 -2 7 -4 -9 -5 -37 -3 -90 -2 -86 -17 -72
-7 6 -10 17 -7 22 3 6 1 6 -4 2 -10 -9 -11 -14 -13 -52 0 -14 -6 -25 -12 -25
-5 0 -7 6 -3 13 5 8 2 8 -9 -2 -9 -7 -17 -22 -17 -32 0 -14 -7 -19 -26 -19
-21 0 -24 -3 -15 -13 15 -19 1 -30 -17 -14 -13 9 -14 9 -8 0 4 -7 2 -13 -3
-13 -6 0 -11 -9 -11 -20 0 -12 -5 -17 -14 -14 -18 7 -26 -7 -28 -51 -1 -35
-11 -45 -24 -23 -4 6 -3 8 3 5 5 -3 10 0 10 7 0 7 -6 13 -12 13 -7 0 -12 -7
-12 -16 0 -63 -3 -69 -26 -65 -12 2 -16 2 -10 -2 10 -4 10 -9 -1 -20 -8 -8
-12 -23 -9 -35 5 -18 3 -21 -14 -17 -17 4 -21 1 -20 -19 0 -14 -7 -29 -14 -34
-10 -6 -11 -9 -1 -9 6 0 12 -5 12 -10 0 -12 -22 -9 -32 5 -7 9 -10 -17 -11
-83 0 -18 -2 -20 -14 -10 -8 6 -12 17 -9 25 3 8 1 11 -4 8 -6 -4 -10 -12 -9
-18 1 -7 1 -28 0 -47 -1 -27 -4 -31 -11 -20 -6 9 -10 10 -10 3 0 -6 5 -15 10
-18 6 -3 10 -16 9 -28 0 -12 -3 -16 -6 -9 -2 6 -10 12 -16 12 -19 0 18 -31 40
-33 11 0 20 -7 20 -14 0 -10 -4 -10 -11 -3 -14 14 -23 13 -23 -3 0 -7 7 -13
16 -14 50 -4 61 -8 61 -25 0 -12 8 -18 25 -19 45 -2 48 -4 52 -19 4 -12 3 -12
-5 -2 -8 11 -10 11 -15 0 -3 -8 0 -15 6 -15 7 -1 31 -2 55 -4 25 -1 38 -6 30
-10 -6 -4 -16 -5 -20 -3 -10 6 -11 -10 -1 -19 3 -4 13 -1 21 6 13 9 14 9 8 0
-7 -13 4 -17 31 -14 12 2 17 -11 14 -31 0 -5 14 -8 33 -8 19 0 37 -4 40 -8 8
-14 -11 -35 -24 -27 -8 5 -11 4 -7 -2 4 -6 -9 -19 -28 -29 -19 -10 -35 -22
-35 -26 0 -3 -8 -9 -19 -13 -18 -6 -81 -60 -81 -70 0 -3 21 -4 48 -1 94 10
143 16 154 19 7 1 12 -9 13 -23 l0 -25 125 -1 c69 0 129 2 135 5 5 3 22 5 37
6 15 1 30 4 33 7 6 5 -94 30 -135 33 -56 5 -54 4 -35 25 10 11 15 23 12 27 -4
3 -41 6 -82 6 -50 0 -74 4 -70 11 3 6 8 19 11 28 4 11 16 16 35 16 31 -1 44 6
44 25 0 7 9 12 20 12 15 0 19 6 17 23 -2 12 2 22 7 22 6 0 10 -5 9 -11 -2 -6
3 -13 10 -14 7 -2 8 -1 2 2 -8 3 -8 9 0 18 6 7 12 29 13 48 2 27 6 34 22 33
15 -1 19 4 17 21 -2 12 2 24 9 28 8 6 7 10 -2 17 -11 8 -11 9 1 5 8 -2 15 -8
15 -13 1 -5 6 -18 12 -29 9 -17 42 -121 44 -142 1 -5 8 -17 15 -28 8 -11 14
-25 14 -32 0 -26 62 -111 98 -135 42 -28 133 -38 158 -18 7 7 14 9 14 5 0 -4
18 10 40 31 25 25 59 45 92 55 l53 15 0 -108 c0 -121 4 -115 -78 -101 l-38 6
46 27 c26 15 43 30 38 33 -22 14 -241 -30 -266 -53 -4 -4 -1 -13 8 -20 8 -7
15 -10 15 -6 0 3 17 -1 38 -10 20 -8 45 -17 56 -19 10 -3 33 -13 51 -24 24
-14 47 -18 84 -16 l51 4 1 -37 c1 -20 1 -40 0 -44 0 -4 3 -28 8 -55 l9 -48
-77 -72 c-54 -51 -84 -89 -101 -125 -40 -92 -51 -117 -51 -123 0 -2 -8 -25
-19 -50 -11 -25 -20 -47 -20 -50 0 -3 -3 -10 -5 -17 -3 -7 -11 -31 -18 -53
-12 -34 -19 -40 -45 -43 -24 -2 -32 1 -32 13 0 8 7 18 15 21 34 13 12 26 -40
22 -30 -1 -55 -2 -55 0 0 1 18 10 41 18 44 18 37 36 -11 28 -34 -5 -140 -15
-167 -15 -37 1 -36 -17 4 -37 l37 -20 -53 -27 c-56 -28 -59 -51 -6 -37 52 13
170 9 167 -6 -1 -7 -3 -20 -5 -30 -1 -9 -6 -23 -10 -29 -12 -20 18 -16 63 7
54 28 59 26 50 -17 -5 -21 -11 -59 -14 -84 -3 -25 -10 -58 -16 -74 -6 -15 -9
-30 -6 -32 2 -2 -3 -25 -10 -50 -18 -58 -18 -68 2 -87 10 -11 30 -15 64 -13
42 3 49 1 54 -16 6 -24 -51 -83 -89 -93 -33 -8 -76 -59 -63 -72 8 -8 6 -18 -6
-36 -9 -14 -16 -32 -16 -40 0 -14 25 -34 43 -34 4 0 42 -4 85 -8 126 -12 231
-5 260 18 6 6 12 8 12 4 0 -9 116 52 128 67 21 28 20 46 -4 72 -13 14 -24 34
-24 44 0 9 -6 23 -13 30 -10 10 -6 11 18 6 45 -10 56 -10 110 -1 28 4 71 8 96
10 26 2 50 6 55 8 19 12 128 0 214 -22 65 -17 223 -19 302 -4 63 12 139 24
163 25 6 0 21 -2 35 -4 36 -7 108 -18 160 -24 25 -2 47 -6 48 -8 7 -7 -9 -43
-28 -65 -11 -13 -20 -28 -20 -35 0 -32 134 -107 217 -121 26 -4 75 -7 108 -7
187 3 257 36 206 97 -7 9 -11 22 -8 29 7 17 -35 63 -65 73 -13 4 -33 16 -45
28 -11 12 -29 28 -39 36 -17 14 -15 15 26 18 59 4 81 30 69 81 -9 38 -4 71 11
71 5 0 41 33 82 74 63 63 82 76 133 91 103 30 166 67 199 118 20 30 26 19 -60
124 -27 33 -25 53 4 54 9 0 42 8 72 18 54 18 54 18 30 32 -14 7 -31 14 -39 15
-8 2 -17 7 -20 12 -3 5 -16 12 -28 16 -30 10 -29 24 2 38 27 12 33 27 13 29
-84 6 -168 7 -168 1 0 -4 20 -24 45 -46 50 -43 57 -64 20 -62 -26 2 -56 25
-92 72 -12 16 -43 52 -68 79 -43 48 -45 52 -43 108 1 31 6 57 11 57 5 0 6 -8
3 -17 -5 -15 -4 -15 9 1 13 17 21 60 16 89 0 4 4 7 10 7 6 0 9 -7 6 -14 -4
-10 -1 -13 8 -10 8 3 14 9 13 12 0 4 0 17 1 30 1 19 5 22 21 17 12 -4 20 -2
20 5 0 6 8 10 17 8 10 -2 18 3 19 10 1 6 2 17 3 23 0 6 8 9 16 6 18 -7 30 9
14 19 -8 4 -9 3 -5 -4 5 -8 2 -10 -9 -6 -17 7 -15 14 7 17 17 3 66 37 52 37
-5 0 -16 -6 -23 -12 -11 -11 -13 -10 -9 2 3 8 14 16 25 18 15 2 19 9 16 21 -6
23 16 38 28 20 6 -10 9 -5 7 16 -2 44 10 75 28 68 10 -4 14 2 14 22 0 18 4 24
13 19 8 -6 8 -3 -1 9 -8 9 -12 22 -9 29 3 8 6 6 6 -5 1 -16 3 -17 16 -3 18 18
20 30 3 20 -9 -5 -8 -2 1 9 8 11 14 43 15 82 1 41 4 61 11 54 11 -11 15 -60 4
-54 -10 7 -5 -22 6 -32 4 -4 5 -2 1 5 -4 6 -3 12 1 12 5 0 9 27 9 60 0 53 -2
59 -18 54 -10 -3 -18 -1 -18 5 0 6 6 11 13 11 9 0 9 2 -1 8 -7 5 -13 25 -14
46 -1 28 -4 33 -10 22 -5 -9 -14 -16 -21 -16 -7 0 -6 4 3 10 13 9 13 10 0 10
-13 0 -13 1 0 10 11 7 7 10 -17 10 -26 0 -33 4 -33 19 0 13 -7 18 -22 17 -17
-1 -23 4 -21 19 1 19 1 19 -11 3 -17 -23 -26 -23 -26 1 0 13 -8 21 -22 23 -15
2 -22 9 -22 20 1 10 -2 15 -7 12 -5 -3 -9 -1 -9 4 0 6 -21 33 -47 61 -56 59
-205 219 -248 266 -40 44 -78 96 -73 100 2 3 30 5 61 6 62 2 68 10 48 62 l-10
25 125 -3 c68 -2 124 -1 124 2 0 9 -26 28 -63 48 -21 11 -41 24 -44 29 -4 5
-1 6 4 3 6 -4 29 7 52 23 22 17 45 30 50 30 8 0 21 23 21 37 0 9 -315 -8 -324
-17 -6 -6 -6 -10 -1 -11 13 -2 76 -7 98 -8 9 -1 17 -5 17 -10 0 -21 -32 -39
-72 -40 -42 -2 -90 -7 -95 -11 -2 -2 -7 -3 -12 -4 -19 -2 -23 -16 -7 -22 17
-6 23 -34 7 -34 -5 0 -16 -2 -23 -5 -9 -4 -21 9 -35 37 -47 98 -53 111 -53
120 0 5 -9 29 -20 53 -11 24 -21 52 -23 62 -2 10 -14 38 -27 63 -12 25 -22 45
-20 45 9 0 -84 178 -124 239 -26 38 -46 70 -46 72 0 3 -46 56 -95 108 -44 48
-150 115 -192 122 -39 7 -89 11 -98 9z m-1433 -552 c-6 -2 -9 -10 -6 -15 4 -7
2 -8 -5 -4 -13 9 -5 26 12 25 9 0 8 -2 -1 -6z m435 -438 c0 -6 -6 -12 -12 -12
-6 0 -12 6 -12 12 0 6 6 12 12 12 6 0 12 -6 12 -12z m2390 -719 c0 -8 -6 -12
-15 -9 -11 5 -11 7 0 14 7 5 13 9 14 9 0 0 1 -6 1 -14z m-240 -482 c0 -7 -6
-10 -14 -7 -7 3 -13 8 -13 12 0 4 6 8 13 8 8 0 14 -6 14 -13z"/>
<path d="M1546 3423 c-6 -14 -5 -15 5 -6 7 7 10 15 7 18 -3 3 -9 -2 -12 -12z"/>
<path d="M1096 2142 c-3 -6 -1 -14 5 -17 15 -10 25 3 12 16 -7 7 -13 7 -17 1z"/>
<path d="M1013 2015 c0 -9 4 -14 9 -13 5 2 10 8 10 13 0 5 -5 11 -10 13 -5 1
-9 -4 -9 -13z"/>
<path d="M974 1979 c-4 -7 -3 -9 4 -5 5 3 13 0 15 -6 4 -9 6 -10 6 -1 1 17
-16 25 -25 12z"/>
<path d="M3766 1782 c-3 -5 1 -9 9 -9 8 0 12 4 9 9 -3 4 -7 8 -9 8 -2 0 -6 -4
-9 -8z"/>
</g>
</svg>
